<?xml version="1.0" standalone="no"?><!DOCTYPE svg PUBLIC "-//W3C//DTD SVG 1.1//EN" "http://www.w3.org/Graphics/SVG/1.1/DTD/svg11.dtd"><svg t="1500883449158" class="icon" style="" viewBox="0 0 1024 1024" version="1.1" xmlns="http://www.w3.org/2000/svg" p-id="2552" xmlns:xlink="http://www.w3.org/1999/xlink" width="200" height="200"><defs><style type="text/css"></style></defs><path d="M512 921.6 512 921.6C738.215834 921.6 921.6 738.215834 921.6 512 921.6 285.784166 738.215834 102.4 512 102.4 285.784166 102.4 102.4 285.784166 102.4 512 102.4 738.215834 285.784166 921.6 512 921.6L512 921.6 512 921.6 512 921.6ZM512 1024 512 1024C229.230208 1024 0 794.769792 0 512 0 229.230208 229.230208 0 512 0 794.769792 0 1024 229.230208 1024 512 1024 794.769792 794.769792 1024 512 1024L512 1024 512 1024 512 1024Z" p-id="2553" fill="#ffffff"></path><path d="M512 439.592266 367.181118 294.773384C347.218573 274.810839 314.77164 274.781953 294.776797 294.776797 274.822639 314.730955 274.780425 347.188159 294.773384 367.181118L439.592266 512 294.773384 656.818882C274.810839 676.781427 274.781953 709.22836 294.776797 729.223203 314.730955 749.177361 347.188159 749.219575 367.181118 729.226616L512 584.407734 656.818882 729.226616C676.781427 749.189161 709.22836 749.218047 729.223203 729.223203 749.177361 709.269045 749.219575 676.811841 729.226616 656.818882L584.407734 512 729.226616 367.181118C749.189161 347.218573 749.218047 314.77164 729.223203 294.776797 709.269045 274.822639 676.811841 274.780425 656.818882 294.773384L512 439.592266 512 439.592266Z" p-id="2554" fill="#ffffff"></path></svg>